solid Exported from Blender-3.1.2
facet normal 0.000000 0.000000 1.000000
outer loop
vertex -5.098076 2.830127 5.000000
vertex -0.098076 -5.830127 5.000000
vertex 5.098076 -2.830127 5.000000
endloop
endfacet
facet normal -0.000000 0.000000 1.000000
outer loop
vertex -5.098076 2.830127 5.000000
vertex 5.098076 -2.830127 5.000000
vertex 0.098076 5.830127 5.000000
endloop
endfacet
facet normal 0.866025 0.500000 0.000000
outer loop
vertex 0.098076 5.830127 0.000000
vertex 0.098076 5.830127 5.000000
vertex 5.098076 -2.830127 5.000000
endloop
endfacet
facet normal 0.866025 0.500000 0.000000
outer loop
vertex 0.098076 5.830127 0.000000
vertex 5.098076 -2.830127 5.000000
vertex 5.098076 -2.830127 0.000000
endloop
endfacet
facet normal 0.500000 -0.866025 0.000000
outer loop
vertex 5.098076 -2.830127 0.000000
vertex 5.098076 -2.830127 5.000000
vertex -0.098076 -5.830127 5.000000
endloop
endfacet
facet normal 0.500000 -0.866025 0.000000
outer loop
vertex 5.098076 -2.830127 0.000000
vertex -0.098076 -5.830127 5.000000
vertex -0.098076 -5.830127 0.000000
endloop
endfacet
facet normal 0.000000 0.000000 -1.000000
outer loop
vertex -0.098076 -5.830127 0.000000
vertex -5.098076 2.830127 0.000000
vertex 0.098076 5.830127 0.000000
endloop
endfacet
facet normal 0.000000 0.000000 -1.000000
outer loop
vertex -0.098076 -5.830127 0.000000
vertex 0.098076 5.830127 0.000000
vertex 5.098076 -2.830127 0.000000
endloop
endfacet
facet normal -0.500000 0.866025 0.000000
outer loop
vertex -5.098076 2.830127 0.000000
vertex -5.098076 2.830127 5.000000
vertex 0.098076 5.830127 5.000000
endloop
endfacet
facet normal -0.500000 0.866025 0.000000
outer loop
vertex -5.098076 2.830127 0.000000
vertex 0.098076 5.830127 5.000000
vertex 0.098076 5.830127 0.000000
endloop
endfacet
facet normal -0.866025 -0.500000 0.000000
outer loop
vertex -0.098076 -5.830127 0.000000
vertex -0.098076 -5.830127 5.000000
vertex -5.098076 2.830127 5.000000
endloop
endfacet
facet normal -0.866025 -0.500000 0.000000
outer loop
vertex -0.098076 -5.830127 0.000000
vertex -5.098076 2.830127 5.000000
vertex -5.098076 2.830127 0.000000
endloop
endfacet
endsolid Exported from Blender-3.1.2
