solid CATIA STL
  facet normal  1.000000e+000  -0.000000e+000  0.000000e+000
    outer loop
      vertex  1.500000e+001  1.000000e+002  5.000000e+001
      vertex  1.500000e+001 -1.000000e+002  5.000000e+001
      vertex  1.500000e+001  2.579687e+001  3.932465e+001
    endloop
  endfacet
  facet normal  1.000000e+000  -0.000000e+000  0.000000e+000
    outer loop
      vertex  1.500000e+001  1.000000e+002  5.000000e+001
      vertex  1.500000e+001  2.579687e+001  3.932465e+001
      vertex  1.500000e+001  2.903417e+001  3.895990e+001
    endloop
  endfacet
  facet normal  1.000000e+000  -0.000000e+000  0.000000e+000
    outer loop
      vertex  1.500000e+001  1.000000e+002  5.000000e+001
      vertex  1.500000e+001  2.903417e+001  3.895990e+001
      vertex  1.500000e+001  3.210913e+001  3.788392e+001
    endloop
  endfacet
  facet normal  1.000000e+000  -0.000000e+000  0.000000e+000
    outer loop
      vertex  1.500000e+001  1.000000e+002  5.000000e+001
      vertex  1.500000e+001  3.210913e+001  3.788392e+001
      vertex  1.500000e+001  1.000000e+002  0.000000e+000
    endloop
  endfacet
  facet normal  1.000000e+000  0.000000e+000  0.000000e+000
    outer loop
      vertex  1.500000e+001  1.000000e+002  0.000000e+000
      vertex  1.500000e+001  3.210913e+001  3.788392e+001
      vertex  1.500000e+001  3.486758e+001  3.615068e+001
    endloop
  endfacet
  facet normal  1.000000e+000  0.000000e+000  0.000000e+000
    outer loop
      vertex  1.500000e+001  1.000000e+002  0.000000e+000
      vertex  1.500000e+001  3.486758e+001  3.615068e+001
      vertex  1.500000e+001  3.717118e+001  3.384708e+001
    endloop
  endfacet
  facet normal  1.000000e+000  0.000000e+000  0.000000e+000
    outer loop
      vertex  1.500000e+001  1.000000e+002  0.000000e+000
      vertex  1.500000e+001  3.717118e+001  3.384708e+001
      vertex  1.500000e+001  3.890442e+001  3.108863e+001
    endloop
  endfacet
  facet normal  1.000000e+000  0.000000e+000  0.000000e+000
    outer loop
      vertex  1.500000e+001  1.000000e+002  0.000000e+000
      vertex  1.500000e+001  3.890442e+001  3.108863e+001
      vertex  1.500000e+001  3.998040e+001  2.801367e+001
    endloop
  endfacet
  facet normal  1.000000e+000  0.000000e+000  0.000000e+000
    outer loop
      vertex  1.500000e+001  1.000000e+002  0.000000e+000
      vertex  1.500000e+001  3.998040e+001  2.801367e+001
      vertex  1.500000e+001  4.034515e+001  2.477637e+001
    endloop
  endfacet
  facet normal  1.000000e+000  0.000000e+000  0.000000e+000
    outer loop
      vertex  1.500000e+001  1.000000e+002  0.000000e+000
      vertex  1.500000e+001  4.034515e+001  2.477637e+001
      vertex  1.500000e+001  3.998040e+001  2.153907e+001
    endloop
  endfacet
  facet normal  1.000000e+000  0.000000e+000  0.000000e+000
    outer loop
      vertex  1.500000e+001  1.000000e+002  0.000000e+000
      vertex  1.500000e+001  3.998040e+001  2.153907e+001
      vertex  1.500000e+001  3.890442e+001  1.846411e+001
    endloop
  endfacet
  facet normal  1.000000e+000  0.000000e+000  0.000000e+000
    outer loop
      vertex  1.500000e+001  1.000000e+002  0.000000e+000
      vertex  1.500000e+001  3.890442e+001  1.846411e+001
      vertex  1.500000e+001  3.717118e+001  1.570567e+001
    endloop
  endfacet
  facet normal  1.000000e+000  0.000000e+000  0.000000e+000
    outer loop
      vertex  1.500000e+001  1.000000e+002  0.000000e+000
      vertex  1.500000e+001  3.717118e+001  1.570567e+001
      vertex  1.500000e+001  3.486758e+001  1.340207e+001
    endloop
  endfacet
  facet normal  1.000000e+000  0.000000e+000  0.000000e+000
    outer loop
      vertex  1.500000e+001  1.000000e+002  0.000000e+000
      vertex  1.500000e+001  3.486758e+001  1.340207e+001
      vertex  1.500000e+001  3.210913e+001  1.166882e+001
    endloop
  endfacet
  facet normal  1.000000e+000  0.000000e+000  0.000000e+000
    outer loop
      vertex  1.500000e+001  1.000000e+002  0.000000e+000
      vertex  1.500000e+001  3.210913e+001  1.166882e+001
      vertex  1.500000e+001  2.903417e+001  1.059284e+001
    endloop
  endfacet
  facet normal  1.000000e+000  0.000000e+000  0.000000e+000
    outer loop
      vertex  1.500000e+001  1.000000e+002  0.000000e+000
      vertex  1.500000e+001  2.903417e+001  1.059284e+001
      vertex  1.500000e+001  2.579687e+001  1.022809e+001
    endloop
  endfacet
  facet normal  9.999999e-001  0.000000e+000  0.000000e+000
    outer loop
      vertex  1.500000e+001  1.000000e+002  0.000000e+000
      vertex  1.500000e+001  2.579687e+001  1.022809e+001
      vertex  1.500000e+001 -1.000000e+002  0.000000e+000
    endloop
  endfacet
  facet normal  1.000000e+000  0.000000e+000  0.000000e+000
    outer loop
      vertex  1.500000e+001 -1.000000e+002  0.000000e+000
      vertex  1.500000e+001  2.579687e+001  1.022809e+001
      vertex  1.500000e+001  2.255957e+001  1.059284e+001
    endloop
  endfacet
  facet normal  1.000000e+000  0.000000e+000  0.000000e+000
    outer loop
      vertex  1.500000e+001 -1.000000e+002  0.000000e+000
      vertex  1.500000e+001  2.255957e+001  1.059284e+001
      vertex  1.500000e+001  1.948461e+001  1.166882e+001
    endloop
  endfacet
  facet normal  1.000000e+000  0.000000e+000  0.000000e+000
    outer loop
      vertex  1.500000e+001 -1.000000e+002  0.000000e+000
      vertex  1.500000e+001  1.948461e+001  1.166882e+001
      vertex  1.500000e+001  1.672617e+001  1.340207e+001
    endloop
  endfacet
  facet normal  1.000000e+000  0.000000e+000  0.000000e+000
    outer loop
      vertex  1.500000e+001 -1.000000e+002  0.000000e+000
      vertex  1.500000e+001  1.672617e+001  1.340207e+001
      vertex  1.500000e+001  1.442257e+001  1.570567e+001
    endloop
  endfacet
  facet normal  1.000000e+000  0.000000e+000  0.000000e+000
    outer loop
      vertex  1.500000e+001 -1.000000e+002  0.000000e+000
      vertex  1.500000e+001  1.442257e+001  1.570567e+001
      vertex  1.500000e+001  1.268932e+001  1.846411e+001
    endloop
  endfacet
  facet normal  1.000000e+000  0.000000e+000  0.000000e+000
    outer loop
      vertex  1.500000e+001 -1.000000e+002  0.000000e+000
      vertex  1.500000e+001  1.268932e+001  1.846411e+001
      vertex  1.500000e+001  1.161335e+001  2.153907e+001
    endloop
  endfacet
  facet normal  1.000000e+000  0.000000e+000  0.000000e+000
    outer loop
      vertex  1.500000e+001 -1.000000e+002  0.000000e+000
      vertex  1.500000e+001  1.161335e+001  2.153907e+001
      vertex  1.500000e+001  1.124859e+001  2.477637e+001
    endloop
  endfacet
  facet normal  9.999999e-001  0.000000e+000  0.000000e+000
    outer loop
      vertex  1.500000e+001 -1.000000e+002  0.000000e+000
      vertex  1.500000e+001  1.124859e+001  2.477637e+001
      vertex  1.500000e+001 -1.000000e+002  5.000000e+001
    endloop
  endfacet
  facet normal  1.000000e+000  0.000000e+000  -0.000000e+000
    outer loop
      vertex  1.500000e+001 -1.000000e+002  5.000000e+001
      vertex  1.500000e+001  1.124859e+001  2.477637e+001
      vertex  1.500000e+001  1.161335e+001  2.801367e+001
    endloop
  endfacet
  facet normal  1.000000e+000  0.000000e+000  -0.000000e+000
    outer loop
      vertex  1.500000e+001 -1.000000e+002  5.000000e+001
      vertex  1.500000e+001  1.161335e+001  2.801367e+001
      vertex  1.500000e+001  1.268932e+001  3.108863e+001
    endloop
  endfacet
  facet normal  1.000000e+000  0.000000e+000  -0.000000e+000
    outer loop
      vertex  1.500000e+001 -1.000000e+002  5.000000e+001
      vertex  1.500000e+001  1.268932e+001  3.108863e+001
      vertex  1.500000e+001  1.442257e+001  3.384708e+001
    endloop
  endfacet
  facet normal  1.000000e+000  0.000000e+000  -0.000000e+000
    outer loop
      vertex  1.500000e+001 -1.000000e+002  5.000000e+001
      vertex  1.500000e+001  1.442257e+001  3.384708e+001
      vertex  1.500000e+001  1.672617e+001  3.615068e+001
    endloop
  endfacet
  facet normal  1.000000e+000  0.000000e+000  -0.000000e+000
    outer loop
      vertex  1.500000e+001 -1.000000e+002  5.000000e+001
      vertex  1.500000e+001  1.672617e+001  3.615068e+001
      vertex  1.500000e+001  1.948461e+001  3.788392e+001
    endloop
  endfacet
  facet normal  1.000000e+000  0.000000e+000  -0.000000e+000
    outer loop
      vertex  1.500000e+001 -1.000000e+002  5.000000e+001
      vertex  1.500000e+001  1.948461e+001  3.788392e+001
      vertex  1.500000e+001  2.255957e+001  3.895990e+001
    endloop
  endfacet
  facet normal  1.000000e+000  0.000000e+000  -0.000000e+000
    outer loop
      vertex  1.500000e+001 -1.000000e+002  5.000000e+001
      vertex  1.500000e+001  2.255957e+001  3.895990e+001
      vertex  1.500000e+001  2.579687e+001  3.932465e+001
    endloop
  endfacet
  facet normal  0.000000e+000  9.937121e-001 -1.119650e-001
    outer loop
      vertex  1.500000e+001  4.034515e+001  2.477637e+001
      vertex  6.500000e+001  4.034515e+001  2.477637e+001
      vertex  1.500000e+001  3.998040e+001  2.153907e+001
    endloop
  endfacet
  facet normal  0.000000e+000  9.937121e-001 -1.119650e-001
    outer loop
      vertex  1.500000e+001  3.998040e+001  2.153907e+001
      vertex  6.500000e+001  4.034515e+001  2.477637e+001
      vertex  6.500000e+001  3.998040e+001  2.153907e+001
    endloop
  endfacet
  facet normal  0.000000e+000  9.438834e-001 -3.302791e-001
    outer loop
      vertex  1.500000e+001  3.998040e+001  2.153907e+001
      vertex  6.500000e+001  3.998040e+001  2.153907e+001
      vertex  1.500000e+001  3.890442e+001  1.846411e+001
    endloop
  endfacet
  facet normal  0.000000e+000  9.438834e-001 -3.302791e-001
    outer loop
      vertex  1.500000e+001  3.890442e+001  1.846411e+001
      vertex  6.500000e+001  3.998040e+001  2.153907e+001
      vertex  6.500000e+001  3.890442e+001  1.846411e+001
    endloop
  endfacet
  facet normal  0.000000e+000  8.467245e-001 -5.320317e-001
    outer loop
      vertex  1.500000e+001  3.890442e+001  1.846411e+001
      vertex  6.500000e+001  3.890442e+001  1.846411e+001
      vertex  1.500000e+001  3.717118e+001  1.570567e+001
    endloop
  endfacet
  facet normal  0.000000e+000  8.467245e-001 -5.320317e-001
    outer loop
      vertex  1.500000e+001  3.717118e+001  1.570567e+001
      vertex  6.500000e+001  3.890442e+001  1.846411e+001
      vertex  6.500000e+001  3.717118e+001  1.570567e+001
    endloop
  endfacet
  facet normal  0.000000e+000  7.071066e-001 -7.071069e-001
    outer loop
      vertex  1.500000e+001  3.717118e+001  1.570567e+001
      vertex  6.500000e+001  3.717118e+001  1.570567e+001
      vertex  1.500000e+001  3.486758e+001  1.340207e+001
    endloop
  endfacet
  facet normal  0.000000e+000  7.071066e-001 -7.071069e-001
    outer loop
      vertex  1.500000e+001  3.486758e+001  1.340207e+001
      vertex  6.500000e+001  3.717118e+001  1.570567e+001
      vertex  6.500000e+001  3.486758e+001  1.340207e+001
    endloop
  endfacet
  facet normal  0.000000e+000  5.320323e-001 -8.467240e-001
    outer loop
      vertex  1.500000e+001  3.486758e+001  1.340207e+001
      vertex  6.500000e+001  3.486758e+001  1.340207e+001
      vertex  1.500000e+001  3.210913e+001  1.166882e+001
    endloop
  endfacet
  facet normal  0.000000e+000  5.320323e-001 -8.467240e-001
    outer loop
      vertex  1.500000e+001  3.210913e+001  1.166882e+001
      vertex  6.500000e+001  3.486758e+001  1.340207e+001
      vertex  6.500000e+001  3.210913e+001  1.166882e+001
    endloop
  endfacet
  facet normal  0.000000e+000  3.302788e-001 -9.438834e-001
    outer loop
      vertex  1.500000e+001  3.210913e+001  1.166882e+001
      vertex  6.500000e+001  3.210913e+001  1.166882e+001
      vertex  1.500000e+001  2.903417e+001  1.059284e+001
    endloop
  endfacet
  facet normal  0.000000e+000  3.302788e-001 -9.438834e-001
    outer loop
      vertex  1.500000e+001  2.903417e+001  1.059284e+001
      vertex  6.500000e+001  3.210913e+001  1.166882e+001
      vertex  6.500000e+001  2.903417e+001  1.059284e+001
    endloop
  endfacet
  facet normal  0.000000e+000  1.119647e-001 -9.937122e-001
    outer loop
      vertex  1.500000e+001  2.903417e+001  1.059284e+001
      vertex  6.500000e+001  2.903417e+001  1.059284e+001
      vertex  1.500000e+001  2.579687e+001  1.022809e+001
    endloop
  endfacet
  facet normal  0.000000e+000  1.119647e-001 -9.937122e-001
    outer loop
      vertex  1.500000e+001  2.579687e+001  1.022809e+001
      vertex  6.500000e+001  2.903417e+001  1.059284e+001
      vertex  6.500000e+001  2.579687e+001  1.022809e+001
    endloop
  endfacet
  facet normal  -0.000000e+000 -1.119647e-001 -9.937122e-001
    outer loop
      vertex  1.500000e+001  2.579687e+001  1.022809e+001
      vertex  6.500000e+001  2.579687e+001  1.022809e+001
      vertex  1.500000e+001  2.255957e+001  1.059284e+001
    endloop
  endfacet
  facet normal  0.000000e+000 -1.119647e-001 -9.937122e-001
    outer loop
      vertex  1.500000e+001  2.255957e+001  1.059284e+001
      vertex  6.500000e+001  2.579687e+001  1.022809e+001
      vertex  6.500000e+001  2.255957e+001  1.059284e+001
    endloop
  endfacet
  facet normal  -0.000000e+000 -3.302788e-001 -9.438834e-001
    outer loop
      vertex  1.500000e+001  2.255957e+001  1.059284e+001
      vertex  6.500000e+001  2.255957e+001  1.059284e+001
      vertex  1.500000e+001  1.948461e+001  1.166882e+001
    endloop
  endfacet
  facet normal  0.000000e+000 -3.302788e-001 -9.438834e-001
    outer loop
      vertex  1.500000e+001  1.948461e+001  1.166882e+001
      vertex  6.500000e+001  2.255957e+001  1.059284e+001
      vertex  6.500000e+001  1.948461e+001  1.166882e+001
    endloop
  endfacet
  facet normal  -0.000000e+000 -5.320323e-001 -8.467240e-001
    outer loop
      vertex  1.500000e+001  1.948461e+001  1.166882e+001
      vertex  6.500000e+001  1.948461e+001  1.166882e+001
      vertex  1.500000e+001  1.672617e+001  1.340207e+001
    endloop
  endfacet
  facet normal  0.000000e+000 -5.320323e-001 -8.467240e-001
    outer loop
      vertex  1.500000e+001  1.672617e+001  1.340207e+001
      vertex  6.500000e+001  1.948461e+001  1.166882e+001
      vertex  6.500000e+001  1.672617e+001  1.340207e+001
    endloop
  endfacet
  facet normal  -0.000000e+000 -7.071067e-001 -7.071067e-001
    outer loop
      vertex  1.500000e+001  1.672617e+001  1.340207e+001
      vertex  6.500000e+001  1.672617e+001  1.340207e+001
      vertex  1.500000e+001  1.442257e+001  1.570567e+001
    endloop
  endfacet
  facet normal  0.000000e+000 -7.071067e-001 -7.071067e-001
    outer loop
      vertex  1.500000e+001  1.442257e+001  1.570567e+001
      vertex  6.500000e+001  1.672617e+001  1.340207e+001
      vertex  6.500000e+001  1.442257e+001  1.570567e+001
    endloop
  endfacet
  facet normal  -0.000000e+000 -8.467240e-001 -5.320323e-001
    outer loop
      vertex  1.500000e+001  1.442257e+001  1.570567e+001
      vertex  6.500000e+001  1.442257e+001  1.570567e+001
      vertex  1.500000e+001  1.268932e+001  1.846411e+001
    endloop
  endfacet
  facet normal  0.000000e+000 -8.467240e-001 -5.320323e-001
    outer loop
      vertex  1.500000e+001  1.268932e+001  1.846411e+001
      vertex  6.500000e+001  1.442257e+001  1.570567e+001
      vertex  6.500000e+001  1.268932e+001  1.846411e+001
    endloop
  endfacet
  facet normal  -0.000000e+000 -9.438834e-001 -3.302788e-001
    outer loop
      vertex  1.500000e+001  1.268932e+001  1.846411e+001
      vertex  6.500000e+001  1.268932e+001  1.846411e+001
      vertex  1.500000e+001  1.161335e+001  2.153907e+001
    endloop
  endfacet
  facet normal  0.000000e+000 -9.438834e-001 -3.302788e-001
    outer loop
      vertex  1.500000e+001  1.161335e+001  2.153907e+001
      vertex  6.500000e+001  1.268932e+001  1.846411e+001
      vertex  6.500000e+001  1.161335e+001  2.153907e+001
    endloop
  endfacet
  facet normal  -0.000000e+000 -9.937122e-001 -1.119647e-001
    outer loop
      vertex  1.500000e+001  1.161335e+001  2.153907e+001
      vertex  6.500000e+001  1.161335e+001  2.153907e+001
      vertex  1.500000e+001  1.124859e+001  2.477637e+001
    endloop
  endfacet
  facet normal  0.000000e+000 -9.937122e-001 -1.119647e-001
    outer loop
      vertex  1.500000e+001  1.124859e+001  2.477637e+001
      vertex  6.500000e+001  1.161335e+001  2.153907e+001
      vertex  6.500000e+001  1.124859e+001  2.477637e+001
    endloop
  endfacet
  facet normal  0.000000e+000 -9.937122e-001  1.119647e-001
    outer loop
      vertex  1.500000e+001  1.124859e+001  2.477637e+001
      vertex  6.500000e+001  1.124859e+001  2.477637e+001
      vertex  1.500000e+001  1.161335e+001  2.801367e+001
    endloop
  endfacet
  facet normal  0.000000e+000 -9.937122e-001  1.119647e-001
    outer loop
      vertex  1.500000e+001  1.161335e+001  2.801367e+001
      vertex  6.500000e+001  1.124859e+001  2.477637e+001
      vertex  6.500000e+001  1.161335e+001  2.801367e+001
    endloop
  endfacet
  facet normal  0.000000e+000 -9.438834e-001  3.302788e-001
    outer loop
      vertex  1.500000e+001  1.161335e+001  2.801367e+001
      vertex  6.500000e+001  1.161335e+001  2.801367e+001
      vertex  1.500000e+001  1.268932e+001  3.108863e+001
    endloop
  endfacet
  facet normal  0.000000e+000 -9.438834e-001  3.302788e-001
    outer loop
      vertex  1.500000e+001  1.268932e+001  3.108863e+001
      vertex  6.500000e+001  1.161335e+001  2.801367e+001
      vertex  6.500000e+001  1.268932e+001  3.108863e+001
    endloop
  endfacet
  facet normal  0.000000e+000 -8.467240e-001  5.320323e-001
    outer loop
      vertex  1.500000e+001  1.268932e+001  3.108863e+001
      vertex  6.500000e+001  1.268932e+001  3.108863e+001
      vertex  1.500000e+001  1.442257e+001  3.384708e+001
    endloop
  endfacet
  facet normal  0.000000e+000 -8.467240e-001  5.320323e-001
    outer loop
      vertex  1.500000e+001  1.442257e+001  3.384708e+001
      vertex  6.500000e+001  1.268932e+001  3.108863e+001
      vertex  6.500000e+001  1.442257e+001  3.384708e+001
    endloop
  endfacet
  facet normal  0.000000e+000 -7.071069e-001  7.071066e-001
    outer loop
      vertex  1.500000e+001  1.442257e+001  3.384708e+001
      vertex  6.500000e+001  1.442257e+001  3.384708e+001
      vertex  1.500000e+001  1.672617e+001  3.615068e+001
    endloop
  endfacet
  facet normal  0.000000e+000 -7.071069e-001  7.071066e-001
    outer loop
      vertex  1.500000e+001  1.672617e+001  3.615068e+001
      vertex  6.500000e+001  1.442257e+001  3.384708e+001
      vertex  6.500000e+001  1.672617e+001  3.615068e+001
    endloop
  endfacet
  facet normal  0.000000e+000 -5.320317e-001  8.467245e-001
    outer loop
      vertex  1.500000e+001  1.672617e+001  3.615068e+001
      vertex  6.500000e+001  1.672617e+001  3.615068e+001
      vertex  1.500000e+001  1.948461e+001  3.788392e+001
    endloop
  endfacet
  facet normal  0.000000e+000 -5.320317e-001  8.467245e-001
    outer loop
      vertex  1.500000e+001  1.948461e+001  3.788392e+001
      vertex  6.500000e+001  1.672617e+001  3.615068e+001
      vertex  6.500000e+001  1.948461e+001  3.788392e+001
    endloop
  endfacet
  facet normal  0.000000e+000 -3.302791e-001  9.438834e-001
    outer loop
      vertex  1.500000e+001  1.948461e+001  3.788392e+001
      vertex  6.500000e+001  1.948461e+001  3.788392e+001
      vertex  1.500000e+001  2.255957e+001  3.895990e+001
    endloop
  endfacet
  facet normal  0.000000e+000 -3.302791e-001  9.438834e-001
    outer loop
      vertex  1.500000e+001  2.255957e+001  3.895990e+001
      vertex  6.500000e+001  1.948461e+001  3.788392e+001
      vertex  6.500000e+001  2.255957e+001  3.895990e+001
    endloop
  endfacet
  facet normal  0.000000e+000 -1.119650e-001  9.937121e-001
    outer loop
      vertex  1.500000e+001  2.255957e+001  3.895990e+001
      vertex  6.500000e+001  2.255957e+001  3.895990e+001
      vertex  1.500000e+001  2.579687e+001  3.932465e+001
    endloop
  endfacet
  facet normal  0.000000e+000 -1.119650e-001  9.937121e-001
    outer loop
      vertex  1.500000e+001  2.579687e+001  3.932465e+001
      vertex  6.500000e+001  2.255957e+001  3.895990e+001
      vertex  6.500000e+001  2.579687e+001  3.932465e+001
    endloop
  endfacet
  facet normal  0.000000e+000  1.119650e-001  9.937121e-001
    outer loop
      vertex  1.500000e+001  2.579687e+001  3.932465e+001
      vertex  6.500000e+001  2.579687e+001  3.932465e+001
      vertex  1.500000e+001  2.903417e+001  3.895990e+001
    endloop
  endfacet
  facet normal  -0.000000e+000  1.119650e-001  9.937121e-001
    outer loop
      vertex  1.500000e+001  2.903417e+001  3.895990e+001
      vertex  6.500000e+001  2.579687e+001  3.932465e+001
      vertex  6.500000e+001  2.903417e+001  3.895990e+001
    endloop
  endfacet
  facet normal  0.000000e+000  3.302791e-001  9.438834e-001
    outer loop
      vertex  1.500000e+001  2.903417e+001  3.895990e+001
      vertex  6.500000e+001  2.903417e+001  3.895990e+001
      vertex  1.500000e+001  3.210913e+001  3.788392e+001
    endloop
  endfacet
  facet normal  -0.000000e+000  3.302791e-001  9.438834e-001
    outer loop
      vertex  1.500000e+001  3.210913e+001  3.788392e+001
      vertex  6.500000e+001  2.903417e+001  3.895990e+001
      vertex  6.500000e+001  3.210913e+001  3.788392e+001
    endloop
  endfacet
  facet normal  0.000000e+000  5.320317e-001  8.467245e-001
    outer loop
      vertex  1.500000e+001  3.210913e+001  3.788392e+001
      vertex  6.500000e+001  3.210913e+001  3.788392e+001
      vertex  1.500000e+001  3.486758e+001  3.615068e+001
    endloop
  endfacet
  facet normal  -0.000000e+000  5.320317e-001  8.467245e-001
    outer loop
      vertex  1.500000e+001  3.486758e+001  3.615068e+001
      vertex  6.500000e+001  3.210913e+001  3.788392e+001
      vertex  6.500000e+001  3.486758e+001  3.615068e+001
    endloop
  endfacet
  facet normal  0.000000e+000  7.071067e-001  7.071067e-001
    outer loop
      vertex  1.500000e+001  3.486758e+001  3.615068e+001
      vertex  6.500000e+001  3.486758e+001  3.615068e+001
      vertex  1.500000e+001  3.717118e+001  3.384708e+001
    endloop
  endfacet
  facet normal  -0.000000e+000  7.071067e-001  7.071067e-001
    outer loop
      vertex  1.500000e+001  3.717118e+001  3.384708e+001
      vertex  6.500000e+001  3.486758e+001  3.615068e+001
      vertex  6.500000e+001  3.717118e+001  3.384708e+001
    endloop
  endfacet
  facet normal  0.000000e+000  8.467245e-001  5.320317e-001
    outer loop
      vertex  1.500000e+001  3.717118e+001  3.384708e+001
      vertex  6.500000e+001  3.717118e+001  3.384708e+001
      vertex  1.500000e+001  3.890442e+001  3.108863e+001
    endloop
  endfacet
  facet normal  -0.000000e+000  8.467245e-001  5.320317e-001
    outer loop
      vertex  1.500000e+001  3.890442e+001  3.108863e+001
      vertex  6.500000e+001  3.717118e+001  3.384708e+001
      vertex  6.500000e+001  3.890442e+001  3.108863e+001
    endloop
  endfacet
  facet normal  0.000000e+000  9.438834e-001  3.302791e-001
    outer loop
      vertex  1.500000e+001  3.890442e+001  3.108863e+001
      vertex  6.500000e+001  3.890442e+001  3.108863e+001
      vertex  1.500000e+001  3.998040e+001  2.801367e+001
    endloop
  endfacet
  facet normal  -0.000000e+000  9.438834e-001  3.302791e-001
    outer loop
      vertex  1.500000e+001  3.998040e+001  2.801367e+001
      vertex  6.500000e+001  3.890442e+001  3.108863e+001
      vertex  6.500000e+001  3.998040e+001  2.801367e+001
    endloop
  endfacet
  facet normal  0.000000e+000  9.937121e-001  1.119650e-001
    outer loop
      vertex  1.500000e+001  3.998040e+001  2.801367e+001
      vertex  6.500000e+001  3.998040e+001  2.801367e+001
      vertex  1.500000e+001  4.034515e+001  2.477637e+001
    endloop
  endfacet
  facet normal  -0.000000e+000  9.937121e-001  1.119650e-001
    outer loop
      vertex  1.500000e+001  4.034515e+001  2.477637e+001
      vertex  6.500000e+001  3.998040e+001  2.801367e+001
      vertex  6.500000e+001  4.034515e+001  2.477637e+001
    endloop
  endfacet
  facet normal  1.000000e+000  0.000000e+000  0.000000e+000
    outer loop
      vertex  6.500000e+001  2.255957e+001  3.895990e+001
      vertex  6.500000e+001  2.903417e+001  3.895990e+001
      vertex  6.500000e+001  2.579687e+001  3.932465e+001
    endloop
  endfacet
  facet normal  1.000000e+000  -0.000000e+000  0.000000e+000
    outer loop
      vertex  6.500000e+001  2.903417e+001  3.895990e+001
      vertex  6.500000e+001  2.255957e+001  3.895990e+001
      vertex  6.500000e+001  3.210913e+001  3.788392e+001
    endloop
  endfacet
  facet normal  9.999999e-001  0.000000e+000  0.000000e+000
    outer loop
      vertex  6.500000e+001  3.210913e+001  3.788392e+001
      vertex  6.500000e+001  2.255957e+001  3.895990e+001
      vertex  6.500000e+001  1.948461e+001  3.788392e+001
    endloop
  endfacet
  facet normal  1.000000e+000  -0.000000e+000  0.000000e+000
    outer loop
      vertex  6.500000e+001  3.210913e+001  3.788392e+001
      vertex  6.500000e+001  1.948461e+001  3.788392e+001
      vertex  6.500000e+001  3.486758e+001  3.615068e+001
    endloop
  endfacet
  facet normal  1.000000e+000  0.000000e+000  0.000000e+000
    outer loop
      vertex  6.500000e+001  3.486758e+001  3.615068e+001
      vertex  6.500000e+001  1.948461e+001  3.788392e+001
      vertex  6.500000e+001  1.672617e+001  3.615068e+001
    endloop
  endfacet
  facet normal  1.000000e+000  -0.000000e+000  0.000000e+000
    outer loop
      vertex  6.500000e+001  3.486758e+001  3.615068e+001
      vertex  6.500000e+001  1.672617e+001  3.615068e+001
      vertex  6.500000e+001  3.717118e+001  3.384708e+001
    endloop
  endfacet
  facet normal  1.000000e+000  0.000000e+000  0.000000e+000
    outer loop
      vertex  6.500000e+001  3.717118e+001  3.384708e+001
      vertex  6.500000e+001  1.672617e+001  3.615068e+001
      vertex  6.500000e+001  1.442257e+001  3.384708e+001
    endloop
  endfacet
  facet normal  1.000000e+000  -0.000000e+000  0.000000e+000
    outer loop
      vertex  6.500000e+001  3.717118e+001  3.384708e+001
      vertex  6.500000e+001  1.442257e+001  3.384708e+001
      vertex  6.500000e+001  3.890442e+001  3.108863e+001
    endloop
  endfacet
  facet normal  1.000000e+000  0.000000e+000  0.000000e+000
    outer loop
      vertex  6.500000e+001  3.890442e+001  3.108863e+001
      vertex  6.500000e+001  1.442257e+001  3.384708e+001
      vertex  6.500000e+001  1.268932e+001  3.108863e+001
    endloop
  endfacet
  facet normal  1.000000e+000  -0.000000e+000  0.000000e+000
    outer loop
      vertex  6.500000e+001  3.890442e+001  3.108863e+001
      vertex  6.500000e+001  1.268932e+001  3.108863e+001
      vertex  6.500000e+001  3.998040e+001  2.801367e+001
    endloop
  endfacet
  facet normal  1.000000e+000  0.000000e+000  0.000000e+000
    outer loop
      vertex  6.500000e+001  3.998040e+001  2.801367e+001
      vertex  6.500000e+001  1.268932e+001  3.108863e+001
      vertex  6.500000e+001  1.161335e+001  2.801367e+001
    endloop
  endfacet
  facet normal  1.000000e+000  -0.000000e+000  0.000000e+000
    outer loop
      vertex  6.500000e+001  3.998040e+001  2.801367e+001
      vertex  6.500000e+001  1.161335e+001  2.801367e+001
      vertex  6.500000e+001  4.034515e+001  2.477637e+001
    endloop
  endfacet
  facet normal  9.999999e-001  0.000000e+000  0.000000e+000
    outer loop
      vertex  6.500000e+001  4.034515e+001  2.477637e+001
      vertex  6.500000e+001  1.161335e+001  2.801367e+001
      vertex  6.500000e+001  1.124859e+001  2.477637e+001
    endloop
  endfacet
  facet normal  9.999999e-001  -0.000000e+000  0.000000e+000
    outer loop
      vertex  6.500000e+001  4.034515e+001  2.477637e+001
      vertex  6.500000e+001  1.124859e+001  2.477637e+001
      vertex  6.500000e+001  3.998040e+001  2.153907e+001
    endloop
  endfacet
  facet normal  1.000000e+000  0.000000e+000  0.000000e+000
    outer loop
      vertex  6.500000e+001  3.998040e+001  2.153907e+001
      vertex  6.500000e+001  1.124859e+001  2.477637e+001
      vertex  6.500000e+001  1.161335e+001  2.153907e+001
    endloop
  endfacet
  facet normal  1.000000e+000  -0.000000e+000  0.000000e+000
    outer loop
      vertex  6.500000e+001  3.998040e+001  2.153907e+001
      vertex  6.500000e+001  1.161335e+001  2.153907e+001
      vertex  6.500000e+001  3.890442e+001  1.846411e+001
    endloop
  endfacet
  facet normal  1.000000e+000  0.000000e+000  0.000000e+000
    outer loop
      vertex  6.500000e+001  3.890442e+001  1.846411e+001
      vertex  6.500000e+001  1.161335e+001  2.153907e+001
      vertex  6.500000e+001  1.268932e+001  1.846411e+001
    endloop
  endfacet
  facet normal  1.000000e+000  -0.000000e+000  0.000000e+000
    outer loop
      vertex  6.500000e+001  3.890442e+001  1.846411e+001
      vertex  6.500000e+001  1.268932e+001  1.846411e+001
      vertex  6.500000e+001  3.717118e+001  1.570567e+001
    endloop
  endfacet
  facet normal  1.000000e+000  0.000000e+000  0.000000e+000
    outer loop
      vertex  6.500000e+001  3.717118e+001  1.570567e+001
      vertex  6.500000e+001  1.268932e+001  1.846411e+001
      vertex  6.500000e+001  1.442257e+001  1.570567e+001
    endloop
  endfacet
  facet normal  9.999999e-001  -0.000000e+000  0.000000e+000
    outer loop
      vertex  6.500000e+001  3.717118e+001  1.570567e+001
      vertex  6.500000e+001  1.442257e+001  1.570567e+001
      vertex  6.500000e+001  3.486758e+001  1.340207e+001
    endloop
  endfacet
  facet normal  1.000000e+000  0.000000e+000  0.000000e+000
    outer loop
      vertex  6.500000e+001  3.486758e+001  1.340207e+001
      vertex  6.500000e+001  1.442257e+001  1.570567e+001
      vertex  6.500000e+001  1.672617e+001  1.340207e+001
    endloop
  endfacet
  facet normal  1.000000e+000  -0.000000e+000  0.000000e+000
    outer loop
      vertex  6.500000e+001  3.486758e+001  1.340207e+001
      vertex  6.500000e+001  1.672617e+001  1.340207e+001
      vertex  6.500000e+001  3.210913e+001  1.166882e+001
    endloop
  endfacet
  facet normal  9.999999e-001  0.000000e+000  0.000000e+000
    outer loop
      vertex  6.500000e+001  3.210913e+001  1.166882e+001
      vertex  6.500000e+001  1.672617e+001  1.340207e+001
      vertex  6.500000e+001  1.948461e+001  1.166882e+001
    endloop
  endfacet
  facet normal  9.999999e-001  -0.000000e+000  0.000000e+000
    outer loop
      vertex  6.500000e+001  3.210913e+001  1.166882e+001
      vertex  6.500000e+001  1.948461e+001  1.166882e+001
      vertex  6.500000e+001  2.903417e+001  1.059284e+001
    endloop
  endfacet
  facet normal  1.000000e+000  0.000000e+000  0.000000e+000
    outer loop
      vertex  6.500000e+001  2.903417e+001  1.059284e+001
      vertex  6.500000e+001  1.948461e+001  1.166882e+001
      vertex  6.500000e+001  2.255957e+001  1.059284e+001
    endloop
  endfacet
  facet normal  1.000000e+000  -0.000000e+000  0.000000e+000
    outer loop
      vertex  6.500000e+001  2.903417e+001  1.059284e+001
      vertex  6.500000e+001  2.255957e+001  1.059284e+001
      vertex  6.500000e+001  2.579687e+001  1.022809e+001
    endloop
  endfacet
  facet normal  0.000000e+000  0.000000e+000  1.000000e+000
    outer loop
      vertex -1.500000e+001  1.000000e+002  5.000000e+001
      vertex -1.500000e+001 -1.000000e+002  5.000000e+001
      vertex -2.690704e+000 -9.067629e+001  5.000000e+001
    endloop
  endfacet
  facet normal  0.000000e+000  -0.000000e+000  1.000000e+000
    outer loop
      vertex -1.500000e+001  1.000000e+002  5.000000e+001
      vertex -2.690704e+000 -9.067629e+001  5.000000e+001
      vertex -2.690704e+000 -5.261300e+001  5.000000e+001
    endloop
  endfacet
  facet normal  0.000000e+000  0.000000e+000  1.000000e+000
    outer loop
      vertex -1.500000e+001  1.000000e+002  5.000000e+001
      vertex -2.690704e+000 -5.261300e+001  5.000000e+001
      vertex -8.976395e+000  5.284678e+001  5.000000e+001
    endloop
  endfacet
  facet normal  0.000000e+000  -0.000000e+000  1.000000e+000
    outer loop
      vertex -1.500000e+001  1.000000e+002  5.000000e+001
      vertex -8.976395e+000  5.284678e+001  5.000000e+001
      vertex -8.976395e+000  8.287836e+001  5.000000e+001
    endloop
  endfacet
  facet normal  0.000000e+000  -0.000000e+000  1.000000e+000
    outer loop
      vertex -1.500000e+001  1.000000e+002  5.000000e+001
      vertex -8.976395e+000  8.287836e+001  5.000000e+001
      vertex  8.833054e+000  8.287836e+001  5.000000e+001
    endloop
  endfacet
  facet normal  0.000000e+000  -0.000000e+000  1.000000e+000
    outer loop
      vertex -1.500000e+001  1.000000e+002  5.000000e+001
      vertex  8.833054e+000  8.287836e+001  5.000000e+001
      vertex  1.500000e+001  1.000000e+002  5.000000e+001
    endloop
  endfacet
  facet normal  0.000000e+000  0.000000e+000  1.000000e+000
    outer loop
      vertex  1.500000e+001 -1.000000e+002  5.000000e+001
      vertex  1.500000e+001  1.000000e+002  5.000000e+001
      vertex  1.407112e+001 -5.261300e+001  5.000000e+001
    endloop
  endfacet
  facet normal  0.000000e+000  0.000000e+000  1.000000e+000
    outer loop
      vertex  1.500000e+001 -1.000000e+002  5.000000e+001
      vertex  1.407112e+001 -5.261300e+001  5.000000e+001
      vertex  1.407112e+001 -9.067629e+001  5.000000e+001
    endloop
  endfacet
  facet normal  0.000000e+000  0.000000e+000  1.000000e+000
    outer loop
      vertex  1.500000e+001 -1.000000e+002  5.000000e+001
      vertex  1.407112e+001 -9.067629e+001  5.000000e+001
      vertex -2.690704e+000 -9.067629e+001  5.000000e+001
    endloop
  endfacet
  facet normal  0.000000e+000  0.000000e+000  1.000000e+000
    outer loop
      vertex  1.500000e+001 -1.000000e+002  5.000000e+001
      vertex -2.690704e+000 -9.067629e+001  5.000000e+001
      vertex -1.500000e+001 -1.000000e+002  5.000000e+001
    endloop
  endfacet
  facet normal  -0.000000e+000  0.000000e+000  1.000000e+000
    outer loop
      vertex  1.500000e+001  1.000000e+002  5.000000e+001
      vertex  8.833054e+000  8.287836e+001  5.000000e+001
      vertex  1.407112e+001 -5.261300e+001  5.000000e+001
    endloop
  endfacet
  facet normal  0.000000e+000  0.000000e+000  1.000000e+000
    outer loop
      vertex  1.407112e+001 -5.261300e+001  5.000000e+001
      vertex  8.833054e+000  8.287836e+001  5.000000e+001
      vertex  8.833054e+000  5.284678e+001  5.000000e+001
    endloop
  endfacet
  facet normal  0.000000e+000  0.000000e+000  1.000000e+000
    outer loop
      vertex  1.407112e+001 -5.261300e+001  5.000000e+001
      vertex  8.833054e+000  5.284678e+001  5.000000e+001
      vertex -2.690704e+000 -5.261300e+001  5.000000e+001
    endloop
  endfacet
  facet normal  0.000000e+000  -0.000000e+000  9.999999e-001
    outer loop
      vertex -2.690704e+000 -5.261300e+001  5.000000e+001
      vertex  8.833054e+000  5.284678e+001  5.000000e+001
      vertex -8.976395e+000  5.284678e+001  5.000000e+001
    endloop
  endfacet
  facet normal  0.000000e+000  1.000000e+000  0.000000e+000
    outer loop
      vertex -2.690704e+000 -5.261300e+001  5.000000e+001
      vertex -2.690704e+000 -5.261300e+001  1.000000e+002
      vertex  1.407112e+001 -5.261300e+001  5.000000e+001
    endloop
  endfacet
  facet normal  0.000000e+000  1.000000e+000  -0.000000e+000
    outer loop
      vertex  1.407112e+001 -5.261300e+001  5.000000e+001
      vertex -2.690704e+000 -5.261300e+001  1.000000e+002
      vertex  1.407112e+001 -5.261300e+001  1.000000e+002
    endloop
  endfacet
  facet normal  1.000000e+000  0.000000e+000  0.000000e+000
    outer loop
      vertex  1.407112e+001 -9.067629e+001  5.000000e+001
      vertex  1.407112e+001 -5.261300e+001  5.000000e+001
      vertex  1.407112e+001 -9.067629e+001  1.000000e+002
    endloop
  endfacet
  facet normal  1.000000e+000  -0.000000e+000  0.000000e+000
    outer loop
      vertex  1.407112e+001 -9.067629e+001  1.000000e+002
      vertex  1.407112e+001 -5.261300e+001  5.000000e+001
      vertex  1.407112e+001 -5.261300e+001  1.000000e+002
    endloop
  endfacet
  facet normal  0.000000e+000 -1.000000e+000  -0.000000e+000
    outer loop
      vertex  1.407112e+001 -9.067629e+001  5.000000e+001
      vertex  1.407112e+001 -9.067629e+001  1.000000e+002
      vertex -2.690704e+000 -9.067629e+001  5.000000e+001
    endloop
  endfacet
  facet normal  0.000000e+000 -1.000000e+000  0.000000e+000
    outer loop
      vertex -2.690704e+000 -9.067629e+001  5.000000e+001
      vertex  1.407112e+001 -9.067629e+001  1.000000e+002
      vertex -2.690704e+000 -9.067629e+001  1.000000e+002
    endloop
  endfacet
  facet normal -1.000000e+000  0.000000e+000  0.000000e+000
    outer loop
      vertex -2.690704e+000 -5.261300e+001  5.000000e+001
      vertex -2.690704e+000 -9.067629e+001  5.000000e+001
      vertex -2.690704e+000 -5.261300e+001  1.000000e+002
    endloop
  endfacet
  facet normal -1.000000e+000  -0.000000e+000  0.000000e+000
    outer loop
      vertex -2.690704e+000 -5.261300e+001  1.000000e+002
      vertex -2.690704e+000 -9.067629e+001  5.000000e+001
      vertex -2.690704e+000 -9.067629e+001  1.000000e+002
    endloop
  endfacet
  facet normal  0.000000e+000  0.000000e+000  1.000000e+000
    outer loop
      vertex -2.690704e+000 -9.067629e+001  1.000000e+002
      vertex  1.407112e+001 -9.067629e+001  1.000000e+002
      vertex -2.690704e+000 -5.261300e+001  1.000000e+002
    endloop
  endfacet
  facet normal  -0.000000e+000  0.000000e+000  1.000000e+000
    outer loop
      vertex -2.690704e+000 -5.261300e+001  1.000000e+002
      vertex  1.407112e+001 -9.067629e+001  1.000000e+002
      vertex  1.407112e+001 -5.261300e+001  1.000000e+002
    endloop
  endfacet
  facet normal  0.000000e+000  1.000000e+000  0.000000e+000
    outer loop
      vertex -8.976395e+000  8.287836e+001  5.000000e+001
      vertex -8.976395e+000  8.287836e+001  1.000000e+002
      vertex  8.833054e+000  8.287836e+001  5.000000e+001
    endloop
  endfacet
  facet normal  0.000000e+000  1.000000e+000  -0.000000e+000
    outer loop
      vertex  8.833054e+000  8.287836e+001  5.000000e+001
      vertex -8.976395e+000  8.287836e+001  1.000000e+002
      vertex  8.833054e+000  8.287836e+001  1.000000e+002
    endloop
  endfacet
  facet normal  1.000000e+000  0.000000e+000  0.000000e+000
    outer loop
      vertex  8.833054e+000  5.284678e+001  5.000000e+001
      vertex  8.833054e+000  8.287836e+001  5.000000e+001
      vertex  8.833054e+000  5.284678e+001  1.000000e+002
    endloop
  endfacet
  facet normal  1.000000e+000  -0.000000e+000  0.000000e+000
    outer loop
      vertex  8.833054e+000  5.284678e+001  1.000000e+002
      vertex  8.833054e+000  8.287836e+001  5.000000e+001
      vertex  8.833054e+000  8.287836e+001  1.000000e+002
    endloop
  endfacet
  facet normal  0.000000e+000 -1.000000e+000  -0.000000e+000
    outer loop
      vertex  8.833054e+000  5.284678e+001  5.000000e+001
      vertex  8.833054e+000  5.284678e+001  1.000000e+002
      vertex -8.976395e+000  5.284678e+001  5.000000e+001
    endloop
  endfacet
  facet normal  0.000000e+000 -1.000000e+000  0.000000e+000
    outer loop
      vertex -8.976395e+000  5.284678e+001  5.000000e+001
      vertex  8.833054e+000  5.284678e+001  1.000000e+002
      vertex -8.976395e+000  5.284678e+001  1.000000e+002
    endloop
  endfacet
  facet normal -1.000000e+000  0.000000e+000  0.000000e+000
    outer loop
      vertex -8.976395e+000  8.287836e+001  5.000000e+001
      vertex -8.976395e+000  5.284678e+001  5.000000e+001
      vertex -8.976395e+000  8.287836e+001  1.000000e+002
    endloop
  endfacet
  facet normal -1.000000e+000  -0.000000e+000  0.000000e+000
    outer loop
      vertex -8.976395e+000  8.287836e+001  1.000000e+002
      vertex -8.976395e+000  5.284678e+001  5.000000e+001
      vertex -8.976395e+000  5.284678e+001  1.000000e+002
    endloop
  endfacet
  facet normal  0.000000e+000  0.000000e+000  1.000000e+000
    outer loop
      vertex -8.976395e+000  5.284678e+001  1.000000e+002
      vertex  8.833054e+000  5.284678e+001  1.000000e+002
      vertex -8.976395e+000  8.287836e+001  1.000000e+002
    endloop
  endfacet
  facet normal  -0.000000e+000  0.000000e+000  1.000000e+000
    outer loop
      vertex -8.976395e+000  8.287836e+001  1.000000e+002
      vertex  8.833054e+000  5.284678e+001  1.000000e+002
      vertex  8.833054e+000  8.287836e+001  1.000000e+002
    endloop
  endfacet
  facet normal  0.000000e+000  0.000000e+000 -1.000000e+000
    outer loop
      vertex -1.500000e+001 -1.000000e+002  0.000000e+000
      vertex -1.500000e+001  1.000000e+002  0.000000e+000
      vertex  1.500000e+001 -1.000000e+002  0.000000e+000
    endloop
  endfacet
  facet normal  0.000000e+000  0.000000e+000 -1.000000e+000
    outer loop
      vertex  1.500000e+001 -1.000000e+002  0.000000e+000
      vertex -1.500000e+001  1.000000e+002  0.000000e+000
      vertex  1.500000e+001  1.000000e+002  0.000000e+000
    endloop
  endfacet
  facet normal  0.000000e+000  1.000000e+000  0.000000e+000
    outer loop
      vertex -1.500000e+001  1.000000e+002  0.000000e+000
      vertex -1.500000e+001  1.000000e+002  5.000000e+001
      vertex  1.500000e+001  1.000000e+002  0.000000e+000
    endloop
  endfacet
  facet normal  0.000000e+000  1.000000e+000  -0.000000e+000
    outer loop
      vertex  1.500000e+001  1.000000e+002  0.000000e+000
      vertex -1.500000e+001  1.000000e+002  5.000000e+001
      vertex  1.500000e+001  1.000000e+002  5.000000e+001
    endloop
  endfacet
  facet normal  0.000000e+000 -1.000000e+000  -0.000000e+000
    outer loop
      vertex  1.500000e+001 -1.000000e+002  0.000000e+000
      vertex  1.500000e+001 -1.000000e+002  5.000000e+001
      vertex -1.500000e+001 -1.000000e+002  0.000000e+000
    endloop
  endfacet
  facet normal  0.000000e+000 -1.000000e+000  0.000000e+000
    outer loop
      vertex -1.500000e+001 -1.000000e+002  0.000000e+000
      vertex  1.500000e+001 -1.000000e+002  5.000000e+001
      vertex -1.500000e+001 -1.000000e+002  5.000000e+001
    endloop
  endfacet
  facet normal -1.000000e+000  0.000000e+000  0.000000e+000
    outer loop
      vertex -1.500000e+001  1.000000e+002  5.000000e+001
      vertex -1.500000e+001  1.000000e+002  0.000000e+000
      vertex -1.500000e+001 -1.000000e+002  5.000000e+001
    endloop
  endfacet
  facet normal -1.000000e+000  0.000000e+000  0.000000e+000
    outer loop
      vertex -1.500000e+001 -1.000000e+002  5.000000e+001
      vertex -1.500000e+001  1.000000e+002  0.000000e+000
      vertex -1.500000e+001 -1.000000e+002  0.000000e+000
    endloop
  endfacet
endsolid CATIA STL
